<svg xmlns="http://www.w3.org/2000/svg" xmlns:xlink="http://www.w3.org/1999/xlink" viewBox="0,0,256,256" width="48px" height="48px" fill-rule="nonzero"><defs><linearGradient x1="8.455" y1="7.883" x2="40.88" y2="41.5" gradientUnits="userSpaceOnUse" id="color-1"><stop offset="0" stop-color="#ffffff"></stop><stop offset="1" stop-color="#3490ed"></stop></linearGradient></defs><g fill="none" fill-rule="nonzero" stroke="none" stroke-width="1" stroke-linecap="butt" stroke-linejoin="miter" stroke-miterlimit="10" stroke-dasharray="" stroke-dashoffset="0" font-family="none" font-weight="none" font-size="none" text-anchor="none" style="mix-blend-mode: normal"><g transform="scale(5.33333,5.33333)"><path d="M24,4c-11.046,0 -20,8.954 -20,20c0,11.046 8.954,20 20,20c11.046,0 20,-8.954 20,-20c0,-11.046 -8.954,-20 -20,-20z" fill="url(#color-1)"></path><path d="M20,35c-3.24,0 -6.351,-0.794 -8.535,-2.178l-0.337,-0.213l0.592,-1.671l0.396,0.046c0.149,0.018 0.266,0.021 0.385,0.021l0.494,-0.005c0.997,0 2.452,-0.16 3.846,-0.577c-1.396,-0.476 -3.166,-1.401 -3.72,-3.115l-0.424,-1.308h1.027c-1.099,-1.003 -1.724,-2.398 -1.724,-3.943v-1.62l0.609,0.281c-0.395,-0.765 -0.604,-1.537 -0.604,-2.262c0,-1.049 0.278,-2.075 0.806,-2.966l0.729,-1.228l0.906,1.102c1.997,2.431 5.244,5.096 8.554,5.563v-0.927c0,-3.364 2.468,-6 5.617,-6c1.545,0 2.883,0.442 3.888,1.281c1.039,-0.261 2.308,-0.743 2.989,-1.144l2.264,-1.332l-0.807,2.5c-0.038,0.12 -0.086,0.24 -0.144,0.362l1.939,-0.859l-2.158,3.233c-0.449,0.683 -0.875,1.332 -1.595,1.939c0.005,0.259 0.007,0.531 0.007,0.65c0,6.966 -5.257,14.37 -15,14.37z" fill="#000000" opacity="0.05"></path><path d="M20,34.5c-3.147,0 -6.161,-0.766 -8.268,-2.101l0.325,-0.919c0.172,0.02 0.306,0.025 0.442,0.025l0.501,-0.005c1.613,0 3.799,-0.369 5.475,-1.163c-2.026,-0.377 -4.306,-1.415 -4.878,-3.184l-0.212,-0.653h0.688c0.476,0 0.855,-0.025 1.165,-0.065c-1.703,-0.855 -2.737,-2.454 -2.737,-4.378v-0.838l0.737,0.341c0.215,0.116 0.501,0.249 0.813,0.378c-0.88,-1.01 -1.545,-2.255 -1.545,-3.481c0,-0.959 0.255,-1.897 0.736,-2.711l0.364,-0.614l0.453,0.551c2.209,2.689 5.804,5.554 9.44,5.8v-1.483c0,-3.084 2.248,-5.5 5.117,-5.5c1.529,0 2.819,0.458 3.751,1.328c1.124,-0.252 2.585,-0.792 3.379,-1.259l1.132,-0.666l-0.403,1.25c-0.191,0.594 -0.654,1.192 -1.197,1.726c0.174,-0.068 0.348,-0.14 0.52,-0.216l1.577,-0.699l-1.202,1.801c-0.483,0.736 -0.906,1.38 -1.683,1.981c0.006,0.303 0.01,0.727 0.01,0.883c0,6.725 -5.082,13.871 -14.5,13.871z" fill="#000000" opacity="0.07"></path><path d="M36,15c-0.951,0.559 -2.671,1.156 -3.793,1.372c-0.896,-0.95 -2.174,-1.372 -3.59,-1.372c-2.72,0 -4.617,2.305 -4.617,5v2c-4,0 -7.9,-3.047 -10.327,-6c-0.427,0.721 -0.667,1.565 -0.667,2.457c0,1.819 1.671,3.665 2.994,4.543c-0.807,-0.025 -2.335,-0.641 -3,-1v0.057c0,2.367 1.661,3.974 3.912,4.422c-0.411,0.113 -0.912,0.521 -2.84,0.521c0.626,1.935 3.773,2.958 5.928,3c-1.686,1.307 -4.692,2 -7,2c-0.399,0 -0.615,0.022 -1,-0.023c2.178,1.38 5.22,2.023 8,2.023c9.057,0 14,-6.918 14,-13.37c0,-0.212 -0.007,-0.922 -0.018,-1.13c0.968,-0.682 1.36,-1.396 2.018,-2.38c-0.882,0.391 -1.999,0.758 -3,0.88c1.018,-0.604 2.633,-1.862 3,-3z" fill="#ffffff"></path></g></g></svg>